<?xml version="1.0" standalone="no"?>
<!DOCTYPE svg PUBLIC "-//W3C//DTD SVG 20010904//EN"
 "http://www.w3.org/TR/2001/REC-SVG-20010904/DTD/svg10.dtd">
<svg version="1.0" xmlns="http://www.w3.org/2000/svg"
 width="499.000000pt" height="499.000000pt" viewBox="0 0 499.000000 499.000000"
 preserveAspectRatio="xMidYMid meet">
<metadata>
Created by potrace 1.14, written by Peter Selinger 2001-2017
</metadata>
<g transform="translate(0.000000,499.000000) scale(0.100000,-0.100000)"
fill="#000000" stroke="none">
<path d="M1604 3446 c-4 -9 23 -44 69 -93 198 -206 187 -192 164 -211 -13 -11
-21 -5 -215 180 -58 54 -77 67 -87 58 -11 -9 -7 -18 23 -49 20 -20 57 -60 82
-87 25 -27 67 -73 94 -102 45 -48 48 -54 34 -68 -14 -14 -24 -7 -108 73 -178
171 -182 174 -196 162 -10 -8 31 -55 184 -209 194 -195 198 -198 247 -204 43
-5 57 -13 104 -60 l53 -53 -98 -96 c-55 -53 -143 -138 -196 -190 -84 -80 -98
-98 -98 -125 0 -39 30 -72 66 -72 27 0 43 15 296 279 58 61 109 111 112 111 3
0 20 -15 37 -32 17 -18 101 -106 187 -195 l156 -163 282 0 281 0 27 25 c32 30
34 72 5 109 -18 23 -27 26 -84 26 -52 0 -69 4 -91 23 -46 40 -29 120 28 131
17 3 103 6 191 6 l161 0 23 27 c29 33 29 72 2 107 -18 23 -27 26 -83 26 -91 0
-136 40 -114 102 17 49 30 52 189 54 119 1 153 4 173 18 46 30 46 108 -1 131
-13 7 -121 12 -285 13 -281 3 -299 6 -317 55 -10 26 -5 45 19 77 l18 24 199 1
c209 2 231 6 251 50 16 34 2 75 -30 95 -26 15 -63 17 -391 18 -400 0 -414 -1
-512 -64 -28 -17 -70 -53 -93 -80 -54 -61 -52 -58 -81 -121 -21 -46 -27 -79
-30 -159 -1 -12 -27 -47 -58 -78 l-57 -57 -58 59 c-53 52 -59 63 -61 104 -3
45 -6 48 -201 242 -109 108 -200 196 -202 196 -3 0 -7 -7 -10 -14z m133 -1083
c2 -5 -3 -15 -11 -22 -12 -10 -17 -9 -25 7 -6 11 -8 22 -5 25 8 8 38 1 41 -10z"/>
<path d="M3578 3406 c-13 -6 -29 -25 -37 -41 -13 -26 -12 -33 5 -64 10 -19 28
-36 39 -38 11 -3 98 -5 194 -7 194 -2 227 6 244 57 14 43 1 76 -37 92 -42 18
-373 19 -408 1z"/>
<path d="M3713 3090 c-27 -11 -43 -40 -43 -77 0 -36 9 -48 44 -67 33 -17 68
-8 98 26 33 38 15 100 -35 118 -35 12 -35 12 -64 0z"/>
<path d="M3462 2763 c-34 -27 -36 -77 -5 -113 l25 -30 117 0 c110 0 119 2 139
23 26 27 29 82 6 112 -13 18 -29 20 -137 23 -107 3 -126 1 -145 -15z"/>
<path d="M3231 2441 c-33 -25 -33 -82 -1 -116 22 -24 29 -25 136 -25 138 0
159 11 159 84 0 68 -16 75 -155 75 -97 1 -119 -2 -139 -18z"/>
<path d="M1569 1941 c-1 -25 -2 -62 -4 -81 -11 -154 -13 -145 35 -145 22 0 41
2 41 5 2 5 6 56 8 91 1 12 12 15 51 14 49 -2 50 -1 50 27 0 29 -5 31 -82 31
-12 0 -18 7 -18 23 0 23 3 24 65 24 65 0 65 0 65 29 l0 28 -105 0 -105 0 -1
-46z"/>
<path d="M2537 1982 c-3 -4 -6 -58 -6 -120 -1 -62 -4 -119 -8 -127 -3 -8 -1
-15 3 -16 83 -9 84 -8 85 27 3 64 3 69 12 75 5 3 28 5 53 4 43 -3 44 -2 44 26
0 30 -4 32 -57 29 -41 -2 -52 5 -46 30 5 17 14 20 64 20 58 0 59 0 59 28 l0
29 -100 1 c-54 1 -101 -2 -103 -6z"/>
<path d="M3449 1969 c-3 -40 -5 -44 -24 -42 -68 7 -134 -46 -137 -110 -2 -48
9 -71 43 -91 33 -20 99 -15 99 7 0 8 4 7 10 -3 5 -8 24 -15 43 -15 l33 -1 3
85 c1 47 4 109 6 138 l4 52 -40 -1 c-31 0 -39 -4 -40 -19z m-9 -133 c0 -32
-20 -66 -40 -66 -5 0 -16 7 -25 16 -27 28 4 84 47 84 14 0 18 -8 18 -34z"/>
<path d="M2292 1960 c-13 -6 -20 -14 -17 -20 3 -6 -2 -13 -12 -17 -10 -4 -21
-11 -24 -16 -9 -13 1 -47 15 -47 7 0 10 -19 8 -56 -5 -72 13 -94 75 -94 28 0
43 4 43 13 0 6 3 21 6 33 4 17 1 21 -18 20 -20 -1 -23 4 -26 41 -3 37 0 42 20
45 17 2 24 11 26 31 2 15 0 27 -5 26 -29 -5 -43 3 -40 23 2 25 -16 32 -51 18z"/>
<path d="M1860 1916 c-25 -8 -35 -17 -35 -31 0 -15 6 -19 20 -16 35 8 70 6 75
-3 3 -5 -20 -17 -50 -28 -82 -27 -105 -74 -55 -111 24 -17 39 -18 180 -8 6 1
11 16 11 34 1 17 2 46 4 62 5 62 0 84 -21 96 -30 16 -89 18 -129 5z m60 -156
c-19 -12 -45 -5 -48 11 -1 9 9 19 25 25 24 8 28 7 31 -10 2 -10 -2 -22 -8 -26z"/>
<path d="M2086 1913 c-40 -21 -35 -63 12 -108 l37 -37 -47 5 c-46 4 -47 3 -46
-20 3 -33 31 -46 85 -40 83 9 103 56 47 111 -43 42 -43 50 1 43 33 -5 35 -4
35 24 0 16 -6 29 -12 30 -72 5 -89 4 -112 -8z"/>
<path d="M2832 1916 c-43 -16 -65 -49 -66 -102 0 -35 5 -50 27 -72 24 -23 35
-27 88 -27 56 0 63 3 90 33 23 25 29 42 29 76 0 37 -5 48 -31 70 -17 14 -36
26 -42 27 -7 0 -23 2 -37 4 -14 1 -40 -3 -58 -9z m69 -56 c29 -16 26 -67 -6
-82 -18 -8 -28 -8 -39 1 -17 14 -13 70 6 83 16 10 16 10 39 -2z"/>
<path d="M3096 1915 c-39 -14 -65 -39 -66 -65 -1 -8 -3 -23 -5 -34 -15 -78
110 -135 189 -87 69 43 66 152 -5 181 -44 18 -70 20 -113 5z m80 -71 c15 -23
3 -61 -22 -71 -22 -8 -55 31 -47 55 16 44 47 51 69 16z"/>
<path d="M1567 1549 c-22 -13 -8 -34 28 -43 14 -4 25 -11 25 -16 0 -16 -19
-21 -40 -10 -11 6 -20 7 -20 1 0 -9 23 -21 40 -21 5 0 16 7 25 16 19 19 4 44
-26 44 -10 0 -20 4 -24 9 -9 16 13 23 35 11 11 -6 20 -7 20 -1 0 8 -24 21 -38
21 -4 0 -15 -5 -25 -11z"/>
<path d="M1942 1513 c-2 -46 0 -53 17 -53 11 0 22 4 25 9 4 5 -3 7 -13 4 -17
-4 -20 1 -24 43 l-3 49 -2 -52z"/>
<path d="M2301 1542 c-26 -49 9 -94 55 -73 27 12 33 58 12 79 -18 18 -56 14
-67 -6z m57 -4 c26 -26 2 -75 -31 -62 -22 8 -29 32 -17 55 12 22 30 25 48 7z"/>
<path d="M2702 1548 c-17 -17 -15 -63 3 -78 20 -17 61 -5 68 20 4 16 0 20 -21
19 -17 -1 -21 -3 -9 -6 20 -5 23 -19 5 -26 -28 -9 -48 5 -48 33 0 33 32 46 55
23 13 -13 15 -13 15 0 0 26 -47 36 -68 15z"/>
<path d="M3097 1553 c-3 -5 -12 -28 -20 -52 -14 -40 -14 -42 2 -27 23 21 38
20 50 -1 5 -10 13 -14 17 -10 4 4 2 13 -4 19 -7 7 -12 19 -12 28 0 22 -25 55
-33 43z m23 -44 c0 -3 -7 -6 -15 -6 -17 0 -17 0 -9 22 5 13 8 14 15 3 5 -7 9
-16 9 -19z"/>
<path d="M3440 1508 c1 -38 3 -48 10 -37 5 9 8 26 5 38 -6 30 0 26 26 -15 16
-27 24 -32 30 -22 11 17 12 78 1 78 -5 0 -6 -15 -4 -32 5 -30 4 -32 -13 -18
-9 8 -21 24 -26 37 -15 40 -29 25 -29 -29z"/>
</g>
</svg>
